<svg width="25" height="24" viewBox="0 0 25 24" fill="none" xmlns="http://www.w3.org/2000/svg">
<path fill-rule="evenodd" clip-rule="evenodd" d="M12.9697 5.46967C13.2626 5.17678 13.7374 5.17678 14.0303 5.46967L20.0303 11.4697C20.3232 11.7626 20.3232 12.2374 20.0303 12.5303L14.0303 18.5303C13.7374 18.8232 13.2626 18.8232 12.9697 18.5303C12.6768 18.2374 12.6768 17.7626 12.9697 17.4697L17.6893 12.75H5.5C5.08579 12.75 4.75 12.4142 4.75 12C4.75 11.5858 5.08579 11.25 5.5 11.25H17.6893L12.9697 6.53033C12.6768 6.23744 12.6768 5.76256 12.9697 5.46967Z" fill="#fff"/>
<path fill-rule="evenodd" clip-rule="evenodd" d="M4.75 12C4.75 11.5858 5.08579 11.25 5.5 11.25H13.5C13.9142 11.25 14.25 11.5858 14.25 12C14.25 12.4142 13.9142 12.75 13.5 12.75H5.5C5.08579 12.75 4.75 12.4142 4.75 12Z" fill="#fff"/>
</svg>
