<svg width="12" height="12" viewBox="0 0 12 12" fill="none" xmlns="http://www.w3.org/2000/svg">
<path fill-rule="evenodd" clip-rule="evenodd" d="M1.92553 3.41858C1.74249 3.32168 1.51556 3.3915 1.41865 3.57454C1.32175 3.75758 1.39158 3.98452 1.57462 4.08142L5.62507 6.22578V10.75C5.62507 10.9571 5.79297 11.125 6.00007 11.125C6.20718 11.125 6.37507 10.9571 6.37507 10.75V6.22578L10.4255 4.08142C10.6086 3.98452 10.6784 3.75758 10.5815 3.57454C10.4846 3.3915 10.2577 3.32168 10.0746 3.41858L6.00007 5.57569L1.92553 3.41858Z" fill="#BBBCBD"/>
<path fill-rule="evenodd" clip-rule="evenodd" d="M5.72306 0.797141C5.90581 0.759555 6.0943 0.759555 6.27705 0.797141C6.48483 0.839875 6.67487 0.945641 6.91666 1.0802C6.93066 1.088 6.94483 1.09589 6.9592 1.10387L9.8592 2.71498C9.87442 2.72343 9.88945 2.73177 9.9043 2.74C10.1597 2.88161 10.3603 2.99286 10.5112 3.1566C10.6438 3.30055 10.7442 3.47116 10.8056 3.65703C10.8755 3.86846 10.8753 4.09786 10.8751 4.38986C10.8751 4.40684 10.8751 4.42403 10.8751 4.44144V7.55855C10.8751 7.57596 10.8751 7.59315 10.8751 7.61013C10.8753 7.90212 10.8755 8.13153 10.8056 8.34296C10.7442 8.52882 10.6438 8.69944 10.5112 8.84338C10.3603 9.00713 10.1597 9.11838 9.9043 9.25998C9.88945 9.26822 9.87442 9.27655 9.8592 9.28501L6.9592 10.8961C6.94484 10.9041 6.93066 10.912 6.91666 10.9198C6.67488 11.0543 6.48483 11.1601 6.27705 11.2028C6.0943 11.2404 5.90581 11.2404 5.72306 11.2028C5.51528 11.1601 5.32523 11.0543 5.08345 10.9198C5.06945 10.912 5.05527 10.9041 5.04091 10.8961L2.14091 9.28501C2.12569 9.27655 2.11066 9.26822 2.09581 9.25998C1.84044 9.11838 1.63982 9.00713 1.48892 8.84338C1.35627 8.69944 1.25588 8.52882 1.19447 8.34296C1.12461 8.13153 1.1248 7.90212 1.12503 7.61013C1.12504 7.59315 1.12505 7.57596 1.12505 7.55855V4.44144C1.12505 4.42403 1.12504 4.40684 1.12503 4.38986C1.1248 4.09786 1.12461 3.86846 1.19447 3.65703C1.25588 3.47116 1.35627 3.30055 1.48892 3.1566C1.63982 2.99286 1.84045 2.88161 2.09581 2.74C2.11066 2.73177 2.12569 2.72343 2.14091 2.71498L5.04091 1.10387C5.05527 1.09589 5.06945 1.088 5.08345 1.0802C5.32523 0.945641 5.51528 0.839875 5.72306 0.797141ZM6.12596 1.53176C6.04289 1.51468 5.95721 1.51468 5.87415 1.53176C5.79362 1.54833 5.70998 1.59013 5.40514 1.75948L2.50514 3.3706C2.18306 3.54953 2.09888 3.60144 2.04045 3.66485C1.98015 3.73028 1.93452 3.80784 1.90661 3.89232C1.87955 3.9742 1.87505 4.07299 1.87505 4.44144V7.55855C1.87505 7.927 1.87955 8.02579 1.90661 8.10766C1.93452 8.19215 1.98015 8.2697 2.04045 8.33513C2.09888 8.39854 2.18306 8.45045 2.50514 8.62939L5.40514 10.2405C5.70998 10.4099 5.79362 10.4517 5.87415 10.4682C5.95721 10.4853 6.04289 10.4853 6.12596 10.4682C6.20649 10.4517 6.29013 10.4099 6.59497 10.2405L9.49497 8.62939C9.81705 8.45045 9.90122 8.39854 9.95966 8.33513C10.02 8.2697 10.0656 8.19215 10.0935 8.10766C10.1206 8.02579 10.1251 7.927 10.1251 7.55855V4.44144C10.1251 4.07299 10.1206 3.9742 10.0935 3.89232C10.0656 3.80784 10.02 3.73028 9.95966 3.66485C9.90122 3.60144 9.81705 3.54953 9.49497 3.37059L6.59497 1.75948C6.29013 1.59013 6.20649 1.54833 6.12596 1.53176Z" fill="#BBBCBD"/>
</svg>
