<svg width="16" height="16" viewBox="0 0 16 16" fill="none" xmlns="http://www.w3.org/2000/svg">
<g opacity="0.4" clip-path="url(#clip0_657_35137)">
<path fill-rule="evenodd" clip-rule="evenodd" d="M6.08333 0.666687C6.08333 0.252473 5.74755 -0.083313 5.33333 -0.083313C4.91912 -0.083313 4.58333 0.252473 4.58333 0.666687V1.46529C2.71431 2.04838 1.34363 3.75197 1.25452 5.79283C1.24999 5.89662 1.24999 6.01496 1.25 6.20108L1.25 6.22224V8.00002L1.25 8.0274C1.25 8.93609 1.24999 9.65627 1.2898 10.2397C1.33047 10.8357 1.41517 11.3436 1.61157 11.8178C2.09367 12.9817 3.01837 13.9064 4.18225 14.3884C4.65641 14.5849 5.16431 14.6696 5.76032 14.7102C6.34374 14.75 7.0639 14.75 7.97256 14.75H7.97262H8H8.02739H8.02744C8.9361 14.75 9.65626 14.75 10.2397 14.7102C10.8357 14.6696 11.3436 14.5849 11.8177 14.3884C12.9816 13.9064 13.9063 12.9817 14.3884 11.8178C14.5848 11.3436 14.6695 10.8357 14.7102 10.2397C14.75 9.65628 14.75 8.93612 14.75 8.02746V8.0274V8.00002V7.97264V7.97258C14.75 7.06392 14.75 6.34376 14.7102 5.76034C14.6695 5.16433 14.5848 4.65643 14.3884 4.18227C13.9063 3.01839 12.9816 2.09369 11.8177 1.61159C11.687 1.55744 11.5537 1.51177 11.4167 1.47318V0.666687C11.4167 0.252473 11.0809 -0.083313 10.6667 -0.083313C10.2525 -0.083313 9.91667 0.252473 9.91667 0.666687V1.2722C9.39534 1.25001 8.7752 1.25002 8.02738 1.25002H8H6.22222L6.20106 1.25002H6.20106L6.08333 1.25007V0.666687ZM3.91667 5.33335C3.91667 4.91914 4.25245 4.58335 4.66667 4.58335H11.3333C11.7475 4.58335 12.0833 4.91914 12.0833 5.33335C12.0833 5.74757 11.7475 6.08335 11.3333 6.08335H4.66667C4.25245 6.08335 3.91667 5.74757 3.91667 5.33335Z" fill="white"/>
</g>
<defs>
<clipPath id="clip0_657_35137">
<rect width="16" height="16" fill="white"/>
</clipPath>
</defs>
</svg>
