<svg width="16" height="17" viewBox="0 0 16 17" fill="none" xmlns="http://www.w3.org/2000/svg">
<g clip-path="url(#clip0_1145_7822)">
<path fill-rule="evenodd" clip-rule="evenodd" d="M6.08333 1.16669C6.08333 0.752473 5.74755 0.416687 5.33333 0.416687C4.91912 0.416687 4.58333 0.752473 4.58333 1.16669V1.96529C2.71431 2.54838 1.34363 4.25197 1.25452 6.29283C1.24999 6.39661 1.24999 6.51494 1.25 6.70104V6.70108V6.72224V8.50002V8.5274V8.52744C1.25 9.43611 1.24999 10.1563 1.2898 10.7397C1.33047 11.3357 1.41517 11.8436 1.61157 12.3178C2.09367 13.4817 3.01837 14.4064 4.18226 14.8884C4.65642 15.0849 5.16431 15.1696 5.76033 15.2102C6.34374 15.25 7.0639 15.25 7.97256 15.25H7.97262H8H8.02739H8.02744C8.9361 15.25 9.65626 15.25 10.2397 15.2102C10.8357 15.1696 11.3436 15.0849 11.8177 14.8884C12.9816 14.4064 13.9063 13.4817 14.3884 12.3178C14.5848 11.8436 14.6695 11.3357 14.7102 10.7397C14.75 10.1563 14.75 9.43612 14.75 8.52746V8.5274V8.50002V8.47264V8.47258C14.75 7.56392 14.75 6.84376 14.7102 6.26034C14.6695 5.66433 14.5848 5.15643 14.3884 4.68227C13.9063 3.51839 12.9816 2.59369 11.8177 2.11159C11.687 2.05743 11.5537 2.01177 11.4167 1.97318V1.16669C11.4167 0.752473 11.0809 0.416687 10.6667 0.416687C10.2525 0.416687 9.91667 0.752473 9.91667 1.16669V1.7722C9.39535 1.75001 8.7752 1.75002 8.02738 1.75002H8.02738L8 1.75002H6.22222L6.20106 1.75002L6.08333 1.75007V1.16669ZM3.91667 5.83335C3.91667 5.41914 4.25245 5.08335 4.66667 5.08335H11.3333C11.7475 5.08335 12.0833 5.41914 12.0833 5.83335C12.0833 6.24757 11.7475 6.58335 11.3333 6.58335H4.66667C4.25245 6.58335 3.91667 6.24757 3.91667 5.83335Z" fill="#D6D6D6"/>
</g>
<defs>
<clipPath id="clip0_1145_7822">
<rect width="16" height="16" fill="white" transform="translate(0 0.5)"/>
</clipPath>
</defs>
</svg>
