<svg width="16" height="16" viewBox="0 0 16 16" fill="none" xmlns="http://www.w3.org/2000/svg">
<path fill-rule="evenodd" clip-rule="evenodd" d="M5.33333 0.166687C5.60948 0.166687 5.83333 0.390545 5.83333 0.666687V1.50023C5.95125 1.50002 6.07368 1.50002 6.20085 1.50002L6.22222 1.50002H9.73333L9.75533 1.50002C9.89816 1.50002 10.0352 1.50002 10.1667 1.5003V0.666687C10.1667 0.390545 10.3905 0.166687 10.6667 0.166687C10.9428 0.166687 11.1667 0.390545 11.1667 0.666687V1.51652C11.2932 1.52181 11.4127 1.52879 11.5255 1.53801C12.0011 1.57687 12.4035 1.65794 12.771 1.84517C13.3668 2.14877 13.8513 2.6332 14.1549 3.22905C14.3421 3.5965 14.4232 3.99892 14.462 4.47451C14.5 4.93959 14.5 5.51658 14.5 6.24467V6.26669V9.73335V9.75537C14.5 10.4835 14.5 11.0605 14.462 11.5255C14.4232 12.0011 14.3421 12.4035 14.1549 12.771C13.8513 13.3668 13.3668 13.8513 12.771 14.1549C12.4035 14.3421 12.0011 14.4232 11.5255 14.462C11.0604 14.5 10.4834 14.5 9.75535 14.5H9.73333H6.26667H6.24465C5.51656 14.5 4.93957 14.5 4.47449 14.462C3.9989 14.4232 3.59648 14.3421 3.22903 14.1549C2.63318 13.8513 2.14875 13.3668 1.84515 12.771C1.65792 12.4035 1.57685 12.0011 1.53799 11.5255C1.49999 11.0604 1.5 10.4835 1.5 9.75535V9.73335V6.22224V6.20087C1.5 5.4932 1.49999 4.93238 1.53595 4.47993C1.57271 4.01733 1.64938 3.62542 1.82657 3.26611C2.13489 2.6409 2.64088 2.13491 3.26609 1.82659C3.6254 1.6494 4.01731 1.57273 4.47991 1.53597C4.59099 1.52714 4.70861 1.52048 4.83333 1.51546V0.666687C4.83333 0.390545 5.05719 0.166687 5.33333 0.166687ZM10.1667 2.50035V2.66669C10.1667 2.94283 10.3905 3.16669 10.6667 3.16669C10.9428 3.16669 11.1667 2.94283 11.1667 2.66669V2.51742C11.2648 2.52191 11.3569 2.52757 11.4441 2.53469C11.8578 2.5685 12.114 2.63275 12.317 2.73617C12.7247 2.9439 13.0561 3.27536 13.2638 3.68304C13.3673 3.88602 13.4315 4.14219 13.4653 4.55594C13.4996 4.97553 13.5 5.5117 13.5 6.26669V9.73335C13.5 10.4883 13.4996 11.0245 13.4653 11.4441C13.4315 11.8579 13.3673 12.114 13.2638 12.317C13.0561 12.7247 12.7247 13.0561 12.317 13.2639C12.114 13.3673 11.8578 13.4315 11.4441 13.4653C11.0245 13.4996 10.4883 13.5 9.73333 13.5H6.26667C5.51168 13.5 4.97551 13.4996 4.55592 13.4653C4.14217 13.4315 3.886 13.3673 3.68302 13.2639C3.27534 13.0561 2.94388 12.7247 2.73615 12.317C2.63273 12.114 2.56848 11.8579 2.53467 11.4441C2.50039 11.0245 2.5 10.4883 2.5 9.73335V6.22224C2.5 5.48845 2.50037 4.96734 2.5328 4.55914C2.5648 4.15654 2.62563 3.90674 2.72344 3.7084C2.9344 3.28062 3.2806 2.93442 3.70837 2.72346C3.90672 2.62565 4.15652 2.56482 4.55912 2.53282C4.64519 2.52599 4.73629 2.52057 4.83333 2.51629V2.66669C4.83333 2.94283 5.05719 3.16669 5.33333 3.16669C5.60948 3.16669 5.83333 2.94283 5.83333 2.66669V2.50026C5.956 2.50003 6.08541 2.50002 6.22222 2.50002H9.73333C9.8865 2.50002 10.0307 2.50004 10.1667 2.50035Z" fill="#6C7B84"/>
<path fill-rule="evenodd" clip-rule="evenodd" d="M4.16797 5.33331C4.16797 5.05717 4.39183 4.83331 4.66797 4.83331H11.3346C11.6108 4.83331 11.8346 5.05717 11.8346 5.33331C11.8346 5.60946 11.6108 5.83331 11.3346 5.83331H4.66797C4.39183 5.83331 4.16797 5.60946 4.16797 5.33331Z" fill="#6C7B84"/>
</svg>
