<svg width="24" height="25" viewBox="0 0 24 25" fill="none" xmlns="http://www.w3.org/2000/svg">
<path fill-rule="evenodd" clip-rule="evenodd" d="M1.50007 4.25006H1.49998L1.00009 4.25012C0.585878 4.25017 0.250051 3.91443 0.25 3.50021C0.249949 3.086 0.585695 2.75017 0.999908 2.75012L1.49991 2.75006H1.50002L1.54594 2.75006L1.54594 2.75006C1.88371 2.75002 2.1157 2.74999 2.33265 2.77526C3.58768 2.92148 4.68471 3.68988 5.25099 4.8194C5.34888 5.01465 5.42813 5.23269 5.54351 5.55013L5.54352 5.55014L5.54352 5.55015L5.5592 5.59329L5.61623 5.75012H17.3824L17.4185 5.75012C18.1635 5.75011 18.7736 5.7501 19.2577 5.7939C19.7524 5.83865 20.2165 5.93544 20.6185 6.19815C21.2182 6.59009 21.6412 7.20058 21.7977 7.89972C21.9025 8.36834 21.8301 8.83691 21.6984 9.31579C21.5694 9.78447 21.3552 10.3556 21.0936 11.0532L21.0936 11.0533L21.0935 11.0533L21.0809 11.0871L20.8702 11.6489L20.8198 11.7836C20.4482 12.7758 20.1918 13.4605 19.7344 13.9795C19.3317 14.4364 18.8239 14.7884 18.2547 15.0049C17.6081 15.251 16.8769 15.2506 15.8174 15.2502H15.8174L15.6736 15.2501H11.3621L11.2166 15.2502C11.1103 15.2502 11.0073 15.2503 10.9073 15.2501H6C5.30964 15.2501 4.75 15.8097 4.75 16.5001C4.75 17.1904 5.30964 17.7501 6 17.7501H9H17H21C21.4142 17.7501 21.75 18.0858 21.75 18.5001C21.75 18.9143 21.4142 19.2501 21 19.2501H19.4501C19.6419 19.6251 19.75 20.0499 19.75 20.5001C19.75 22.0188 18.5188 23.2501 17 23.2501C15.4812 23.2501 14.25 22.0188 14.25 20.5001C14.25 20.0499 14.3581 19.6251 14.5499 19.2501H11.4501C11.6419 19.6251 11.75 20.0499 11.75 20.5001C11.75 22.0188 10.5188 23.2501 9 23.2501C7.48122 23.2501 6.25 22.0188 6.25 20.5001C6.25 20.0499 6.35814 19.6251 6.54985 19.2501H6C4.48122 19.2501 3.25 18.0188 3.25 16.5001C3.25 14.9813 4.48122 13.7501 6 13.7501H7.10509C6.747 13.2513 6.51451 12.611 6.19585 11.7335L6.1462 11.5968L4.14951 6.10591C4.01249 5.7291 3.96389 5.59901 3.91007 5.49167C3.5703 4.81396 2.91209 4.35292 2.15907 4.26519C2.03981 4.25129 1.90095 4.25007 1.50009 4.25006H1.50007ZM14.0097 13.7501C14.0064 13.7501 14.0032 13.7501 14 13.7501H11.2175C10.055 13.749 9.63892 13.7327 9.29477 13.6006C8.95081 13.4685 8.64454 13.254 8.40288 12.9759C8.15132 12.6864 7.99105 12.2809 7.55589 11.0842L6.16168 7.25012H17.3824C18.1724 7.25012 18.7141 7.25085 19.1225 7.2878C19.5282 7.32451 19.7013 7.39064 19.7978 7.45377C20.0704 7.63192 20.2627 7.90942 20.3338 8.22721C20.359 8.33982 20.3602 8.52503 20.2521 8.9178C20.1433 9.31321 19.9538 9.82067 19.6764 10.5604L19.4657 11.1222C19.0231 12.3026 18.8605 12.7024 18.609 12.9878C18.3674 13.2619 18.0627 13.4731 17.7212 13.603C17.3657 13.7383 16.9342 13.7501 15.6736 13.7501H14.0097ZM9 19.2501C8.30964 19.2501 7.75 19.8097 7.75 20.5001C7.75 21.1904 8.30964 21.7501 9 21.7501C9.69036 21.7501 10.25 21.1904 10.25 20.5001C10.25 19.8097 9.69036 19.2501 9 19.2501ZM17 19.2501C16.3096 19.2501 15.75 19.8097 15.75 20.5001C15.75 21.1904 16.3096 21.7501 17 21.7501C17.6904 21.7501 18.25 21.1904 18.25 20.5001C18.25 19.8097 17.6904 19.2501 17 19.2501Z" fill="#333333"/>
</svg>
