<svg width="24" height="25" viewBox="0 0 24 25" fill="none" xmlns="http://www.w3.org/2000/svg">
<path fill-rule="evenodd" clip-rule="evenodd" d="M14.5303 5.96967C14.8232 6.26256 14.8232 6.73744 14.5303 7.03033L9.06066 12.5L14.5303 17.9697C14.8232 18.2626 14.8232 18.7374 14.5303 19.0303C14.2374 19.3232 13.7626 19.3232 13.4697 19.0303L7.46967 13.0303C7.17678 12.7374 7.17678 12.2626 7.46967 11.9697L13.4697 5.96967C13.7626 5.67678 14.2374 5.67678 14.5303 5.96967Z" fill="#1D2642"/>
<path fill-rule="evenodd" clip-rule="evenodd" d="M14.5303 5.96967C14.8232 6.26256 14.8232 6.73744 14.5303 7.03033L8.53033 13.0303C8.23744 13.3232 7.76256 13.3232 7.46967 13.0303C7.17678 12.7374 7.17678 12.2626 7.46967 11.9697L13.4697 5.96967C13.7626 5.67678 14.2374 5.67678 14.5303 5.96967Z" fill="#322F2E"/>
</svg>
