<svg width="16" height="16" viewBox="0 0 16 16" fill="none" xmlns="http://www.w3.org/2000/svg">
<path fill-rule="evenodd" clip-rule="evenodd" d="M6.31442 3.64645C6.50968 3.45118 6.82626 3.45118 7.02152 3.64645L11.0215 7.64645C11.2168 7.84171 11.2168 8.15829 11.0215 8.35355L7.02152 12.3536C6.82626 12.5488 6.50968 12.5488 6.31442 12.3536C6.11915 12.1583 6.11915 11.8417 6.31442 11.6464L9.96086 8L6.31442 4.35355C6.11915 4.15829 6.11915 3.84171 6.31442 3.64645Z" fill="#1D2642"/>
<path fill-rule="evenodd" clip-rule="evenodd" d="M11.0215 7.64645C11.2168 7.84171 11.2168 8.15829 11.0215 8.35355L7.02152 12.3536C6.82626 12.5488 6.50968 12.5488 6.31442 12.3536C6.11915 12.1583 6.11915 11.8417 6.31442 11.6464L10.3144 7.64645C10.5097 7.45118 10.8263 7.45118 11.0215 7.64645Z" fill="#B7202E"/>
</svg>
