<svg width="20" height="20" viewBox="0 0 20 20" fill="none" xmlns="http://www.w3.org/2000/svg">
<path fill-rule="evenodd" clip-rule="evenodd" d="M10 3.25C6.27208 3.25 3.25 6.27208 3.25 10C3.25 13.7279 6.27208 16.75 10 16.75C13.7279 16.75 16.75 13.7279 16.75 10C16.75 6.27208 13.7279 3.25 10 3.25ZM1.75 10C1.75 5.44365 5.44365 1.75 10 1.75C14.5563 1.75 18.25 5.44365 18.25 10C18.25 14.5563 14.5563 18.25 10 18.25C5.44365 18.25 1.75 14.5563 1.75 10Z" fill="#BBBCBD"/>
<path fill-rule="evenodd" clip-rule="evenodd" d="M15.3024 2.19683C15.0095 1.90394 15.0095 1.42907 15.3024 1.13617C15.5952 0.843281 16.0701 0.843281 16.363 1.13617L18.863 3.63617C19.1559 3.92907 19.1559 4.40394 18.863 4.69683C18.5701 4.98973 18.0952 4.98973 17.8024 4.69683L15.3024 2.19683ZM4.69635 1.13617C4.98924 1.42907 4.98924 1.90394 4.69635 2.19683L2.19635 4.69683C1.90345 4.98973 1.42858 4.98973 1.13569 4.69683C0.842792 4.40394 0.842792 3.92907 1.13569 3.63617L3.63569 1.13617C3.92858 0.843281 4.40345 0.843281 4.69635 1.13617ZM9.99935 5.9165C10.4136 5.9165 10.7493 6.25229 10.7493 6.6665V9.59845L12.9154 11.0425C13.26 11.2722 13.3532 11.7379 13.1234 12.0825C12.8936 12.4272 12.428 12.5203 12.0833 12.2905L9.58332 10.6239C9.37467 10.4848 9.24935 10.2506 9.24935 9.99984V6.6665C9.24935 6.25229 9.58514 5.9165 9.99935 5.9165Z" fill="#BBBCBD"/>
</svg>
