<svg width="24" height="24" viewBox="0 0 24 24" fill="none" xmlns="http://www.w3.org/2000/svg">
<path fill-rule="evenodd" clip-rule="evenodd" d="M2.32698 3.63803C2 4.27976 2 5.11984 2 6.8V11.2C2 12.8802 2 13.7202 2.32698 14.362C2.6146 14.9265 3.07354 15.3854 3.63803 15.673C4.27976 16 5.11984 16 6.8 16H7.26858C7.25642 16.0536 7.25 16.1094 7.25 16.1667V17.2V17.2321C7.24999 18.0449 7.24999 18.7006 7.29336 19.2315C7.33803 19.7781 7.43238 20.2582 7.65873 20.7025C8.01825 21.4081 8.59193 21.9817 9.29754 22.3413C9.74175 22.5676 10.2219 22.662 10.7685 22.7066C11.2994 22.75 11.9551 22.75 12.7679 22.75H12.8H17.2H17.2321C18.0449 22.75 18.7006 22.75 19.2315 22.7066C19.7781 22.662 20.2582 22.5676 20.7025 22.3413C21.4081 21.9817 21.9817 21.4081 22.3413 20.7025C22.5676 20.2582 22.662 19.7781 22.7066 19.2315C22.75 18.7006 22.75 18.0449 22.75 17.2321V17.2V12.8V12.7679C22.75 11.9551 22.75 11.2994 22.7066 10.7685C22.662 10.2219 22.5676 9.74175 22.3413 9.29754C21.9817 8.59193 21.4081 8.01825 20.7025 7.65873C20.2582 7.43238 19.7781 7.33803 19.2315 7.29336C18.7006 7.24999 18.0449 7.24999 17.2321 7.25H17.2H16.1667C16.1094 7.25 16.0536 7.25642 16 7.26858V6.8C16 5.11984 16 4.27976 15.673 3.63803C15.3854 3.07354 14.9265 2.6146 14.362 2.32698C13.7202 2 12.8802 2 11.2 2H6.8C5.11984 2 4.27976 2 3.63803 2.32698C3.07354 2.6146 2.6146 3.07354 2.32698 3.63803ZM16 8.73142V11.2C16 12.8802 16 13.7202 15.673 14.362C15.3854 14.9265 14.9265 15.3854 14.362 15.673C13.7202 16 12.8802 16 11.2 16H8.73142C8.74358 16.0536 8.75 16.1094 8.75 16.1667V17.2C8.75 18.0525 8.75058 18.6467 8.78838 19.1093C8.82546 19.5632 8.8946 19.824 8.99524 20.0215C9.21095 20.4448 9.55516 20.789 9.97852 21.0048C10.176 21.1054 10.4368 21.1745 10.8907 21.2116C11.3533 21.2494 11.9475 21.25 12.8 21.25H17.2C18.0525 21.25 18.6467 21.2494 19.1093 21.2116C19.5632 21.1745 19.824 21.1054 20.0215 21.0048C20.4448 20.789 20.789 20.4448 21.0048 20.0215C21.1054 19.824 21.1745 19.5632 21.2116 19.1093C21.2494 18.6467 21.25 18.0525 21.25 17.2V12.8C21.25 11.9475 21.2494 11.3533 21.2116 10.8907C21.1745 10.4368 21.1054 10.176 21.0048 9.97852C20.789 9.55516 20.4448 9.21095 20.0215 8.99524C19.824 8.8946 19.5632 8.82546 19.1093 8.78838C18.6467 8.75058 18.0525 8.75 17.2 8.75H16.1667C16.1094 8.75 16.0536 8.74358 16 8.73142Z" fill="#808A96"/>
</svg>
