<svg width="20" height="20" viewBox="0 0 20 20" fill="none" xmlns="http://www.w3.org/2000/svg">
<path fill-rule="evenodd" clip-rule="evenodd" d="M8.06602 2.58333L8.03302 2.58333C6.94087 2.58332 6.07537 2.58332 5.37775 2.64032C4.66436 2.6986 4.06073 2.82021 3.50956 3.10105C2.61579 3.55645 1.88913 4.2831 1.43373 5.17687C1.1529 5.72805 1.03129 6.33167 0.973003 7.04506C0.916005 7.74268 0.91601 8.60818 0.916016 9.70032L0.916016 9.73332V10.2667L0.916016 10.2997C0.91601 11.3918 0.916005 12.2573 0.973003 12.9549C1.03129 13.6683 1.1529 14.2719 1.43373 14.8231C1.88913 15.7169 2.61579 16.4435 3.50956 16.8989C4.06074 17.1798 4.66436 17.3014 5.37775 17.3597C6.07537 17.4167 6.94086 17.4167 8.033 17.4167H8.06602H11.9327H11.9657C13.0578 17.4167 13.9233 17.4167 14.6209 17.3597C15.3343 17.3014 15.938 17.1798 16.4891 16.8989C17.3829 16.4435 18.1096 15.7169 18.565 14.8231C18.8458 14.2719 18.9674 13.6683 19.0257 12.9549C19.0827 12.2573 19.0827 11.3918 19.0827 10.2997V10.2667V9.73333V9.70031C19.0827 8.60817 19.0827 7.74268 19.0257 7.04506C18.9674 6.33167 18.8458 5.72805 18.565 5.17687C18.1096 4.2831 17.3829 3.55645 16.4891 3.10105C15.938 2.82021 15.3343 2.6986 14.6209 2.64032C13.9233 2.58332 13.0578 2.58332 11.9657 2.58333L11.9327 2.58333H8.06602ZM4.19055 4.43756C4.49502 4.28242 4.87927 4.18604 5.4999 4.13533C6.12928 4.08391 6.93354 4.08333 8.06602 4.08333H11.9327C13.0652 4.08333 13.8694 4.08391 14.4988 4.13533C15.1194 4.18604 15.5037 4.28242 15.8082 4.43756C16.4197 4.74915 16.9169 5.24633 17.2285 5.85786C17.3836 6.16233 17.48 6.54658 17.5307 7.16721C17.5821 7.79659 17.5827 8.60085 17.5827 9.73333V10.2667C17.5827 11.3991 17.5821 12.2034 17.5307 12.8328C17.48 13.4534 17.3836 13.8377 17.2285 14.1421C16.9169 14.7537 16.4197 15.2508 15.8082 15.5624C15.5037 15.7176 15.1194 15.8139 14.4988 15.8647C13.8694 15.9161 13.0652 15.9167 11.9327 15.9167H8.06602C6.93354 15.9167 6.12928 15.9161 5.4999 15.8647C4.87927 15.8139 4.49502 15.7176 4.19055 15.5624C3.57902 15.2508 3.08183 14.7537 2.77024 14.1421C2.61511 13.8377 2.51873 13.4534 2.46802 12.8328C2.4166 12.2034 2.41602 11.3991 2.41602 10.2667V9.73332C2.41602 8.60084 2.4166 7.79659 2.46802 7.16721C2.51873 6.54658 2.61511 6.16233 2.77024 5.85786C3.08183 5.24633 3.57902 4.74915 4.19055 4.43756ZM5.41537 6.04262C5.07073 5.81286 4.60508 5.90599 4.37531 6.25064C4.14555 6.59528 4.23868 7.06093 4.58332 7.2907L9.58332 10.624C9.83525 10.792 10.1634 10.792 10.4154 10.624L15.4154 7.2907C15.76 7.06093 15.8532 6.59528 15.6234 6.25064C15.3936 5.90599 14.928 5.81286 14.5833 6.04262L9.99935 9.09861L5.41537 6.04262Z" fill="#D12536"/>
</svg>
