<svg width="16" height="16" viewBox="0 0 16 16" fill="none" xmlns="http://www.w3.org/2000/svg">
<g opacity="0.4">
<path fill-rule="evenodd" clip-rule="evenodd" d="M7.9987 2.58331C5.47305 2.58331 3.62573 3.49024 2.40665 4.61554C1.80161 5.17405 1.35276 5.7849 1.05226 6.36186C0.75876 6.92539 0.582031 7.50506 0.582031 7.99998C0.582031 8.4949 0.75876 9.07457 1.05226 9.6381C1.35276 10.2151 1.80161 10.8259 2.40665 11.3844C3.62573 12.5097 5.47305 13.4166 7.9987 13.4166C10.5243 13.4166 12.3717 12.5097 13.5907 11.3844C14.1958 10.8259 14.6446 10.2151 14.9451 9.6381C15.2386 9.07457 15.4154 8.4949 15.4154 7.99998C15.4154 7.50506 15.2386 6.92539 14.9451 6.36186C14.6446 5.7849 14.1958 5.17405 13.5907 4.61554C12.3717 3.49024 10.5243 2.58331 7.9987 2.58331ZM7.99862 6.75C7.30826 6.75 6.74862 7.30964 6.74862 8C6.74862 8.69036 7.30826 9.25 7.99862 9.25C8.68897 9.25 9.24862 8.69036 9.24862 8C9.24862 7.30964 8.68897 6.75 7.99862 6.75ZM5.24862 8C5.24862 6.48122 6.47983 5.25 7.99862 5.25C9.5174 5.25 10.7486 6.48122 10.7486 8C10.7486 9.51878 9.5174 10.75 7.99862 10.75C6.47983 10.75 5.24862 9.51878 5.24862 8Z" fill="white"/>
</g>
</svg>
