<svg width="16" height="17" viewBox="0 0 16 17" fill="none" xmlns="http://www.w3.org/2000/svg">
<path fill-rule="evenodd" clip-rule="evenodd" d="M7.9987 3.08331C5.47305 3.08331 3.62573 3.99024 2.40665 5.11554C1.80161 5.67405 1.35276 6.2849 1.05226 6.86186C0.75876 7.42539 0.582031 8.00506 0.582031 8.49998C0.582031 8.9949 0.75876 9.57457 1.05226 10.1381C1.35276 10.7151 1.80161 11.3259 2.40665 11.8844C3.62573 13.0097 5.47305 13.9166 7.9987 13.9166C10.5243 13.9166 12.3717 13.0097 13.5907 11.8844C14.1958 11.3259 14.6446 10.7151 14.9451 10.1381C15.2386 9.57457 15.4154 8.9949 15.4154 8.49998C15.4154 8.00506 15.2386 7.42539 14.9451 6.86186C14.6446 6.2849 14.1958 5.67405 13.5907 5.11554C12.3717 3.99024 10.5243 3.08331 7.9987 3.08331ZM7.99862 7.25C7.30826 7.25 6.74862 7.80964 6.74862 8.5C6.74862 9.19036 7.30826 9.75 7.99862 9.75C8.68897 9.75 9.24862 9.19036 9.24862 8.5C9.24862 7.80964 8.68897 7.25 7.99862 7.25ZM5.24862 8.5C5.24862 6.98122 6.47983 5.75 7.99862 5.75C9.5174 5.75 10.7486 6.98122 10.7486 8.5C10.7486 10.0188 9.5174 11.25 7.99862 11.25C6.47983 11.25 5.24862 10.0188 5.24862 8.5Z" fill="#D6D6D6"/>
</svg>
