<svg width="48" height="48" viewBox="0 0 48 48" fill="none" xmlns="http://www.w3.org/2000/svg">
<g filter="url(#filter0_b_657_35523)">
<rect width="48" height="48" rx="8" fill="#EBEFF5"/>
<path fill-rule="evenodd" clip-rule="evenodd" d="M21.4697 17.4697C21.7626 17.1768 22.2374 17.1768 22.5303 17.4697L28.5303 23.4697C28.8232 23.7626 28.8232 24.2374 28.5303 24.5303L22.5303 30.5303C22.2374 30.8232 21.7626 30.8232 21.4697 30.5303C21.1768 30.2374 21.1768 29.7626 21.4697 29.4697L26.9393 24L21.4697 18.5303C21.1768 18.2374 21.1768 17.7626 21.4697 17.4697Z" fill="#1D2642"/>
<path fill-rule="evenodd" clip-rule="evenodd" d="M28.5303 23.4697C28.8232 23.7626 28.8232 24.2374 28.5303 24.5303L22.5303 30.5303C22.2374 30.8232 21.7626 30.8232 21.4697 30.5303C21.1768 30.2374 21.1768 29.7626 21.4697 29.4697L27.4697 23.4697C27.7626 23.1768 28.2374 23.1768 28.5303 23.4697Z" fill="#322F2E"/>
</g>
<defs>
<filter id="filter0_b_657_35523" x="-10" y="-10" width="68" height="68" filterUnits="userSpaceOnUse" color-interpolation-filters="sRGB">
<feFlood flood-opacity="0" result="BackgroundImageFix"/>
<feGaussianBlur in="BackgroundImageFix" stdDeviation="5"/>
<feComposite in2="SourceAlpha" operator="in" result="effect1_backgroundBlur_657_35523"/>
<feBlend mode="normal" in="SourceGraphic" in2="effect1_backgroundBlur_657_35523" result="shape"/>
</filter>
</defs>
</svg>
