<svg width="48" height="48" viewBox="0 0 48 48" fill="none" xmlns="http://www.w3.org/2000/svg">
<g filter="url(#filter0_b_657_35521)">
<rect width="48" height="48" rx="8" fill="#EBEFF5"/>
<path fill-rule="evenodd" clip-rule="evenodd" d="M26.5303 17.4697C26.8232 17.7626 26.8232 18.2374 26.5303 18.5303L21.0607 24L26.5303 29.4697C26.8232 29.7626 26.8232 30.2374 26.5303 30.5303C26.2374 30.8232 25.7626 30.8232 25.4697 30.5303L19.4697 24.5303C19.1768 24.2374 19.1768 23.7626 19.4697 23.4697L25.4697 17.4697C25.7626 17.1768 26.2374 17.1768 26.5303 17.4697Z" fill="#1D2642"/>
<path fill-rule="evenodd" clip-rule="evenodd" d="M26.5303 17.4697C26.8232 17.7626 26.8232 18.2374 26.5303 18.5303L20.5303 24.5303C20.2374 24.8232 19.7626 24.8232 19.4697 24.5303C19.1768 24.2374 19.1768 23.7626 19.4697 23.4697L25.4697 17.4697C25.7626 17.1768 26.2374 17.1768 26.5303 17.4697Z" fill="#322F2E"/>
</g>
<defs>
<filter id="filter0_b_657_35521" x="-10" y="-10" width="68" height="68" filterUnits="userSpaceOnUse" color-interpolation-filters="sRGB">
<feFlood flood-opacity="0" result="BackgroundImageFix"/>
<feGaussianBlur in="BackgroundImageFix" stdDeviation="5"/>
<feComposite in2="SourceAlpha" operator="in" result="effect1_backgroundBlur_657_35521"/>
<feBlend mode="normal" in="SourceGraphic" in2="effect1_backgroundBlur_657_35521" result="shape"/>
</filter>
</defs>
</svg>
