<svg width="22" height="24" viewBox="0 0 22 24" fill="none" xmlns="http://www.w3.org/2000/svg">
<path d="M21.6532 3.61939V11.3259C21.6532 13.2334 20.7789 15.4474 19.1921 17.5601C17.3428 20.0216 14.6188 22.1943 11.3145 23.8435L11.0004 24L10.6863 23.8435C7.38199 22.1943 4.65798 20.0216 2.80869 17.5601C1.22191 15.4474 0.347656 13.2334 0.347656 11.3259V3.61939L5.53036 3.05176e-05H16.4705L21.6532 3.61939Z" fill="#00358F"/>
<path d="M21.6528 3.61939V11.3259C21.6528 13.2334 20.7785 15.4474 19.1917 17.5601C17.3424 20.0216 14.6184 22.1943 11.3141 23.8435L11 24V3.05176e-05H16.4701L21.6528 3.61939Z" fill="#012453"/>
<path d="M15.5853 2.81265H6.41528L3.16016 5.08571V11.326C3.16016 13.4706 5.27008 17.6614 11.0003 20.8316C16.7305 17.6614 18.8405 13.4706 18.8405 11.326V5.08571L15.5853 2.81265Z" fill="#00B3FE"/>
<path d="M18.8401 5.08571V11.326C18.8401 13.4706 16.7302 17.6614 11 20.8316V2.81265H15.585L18.8401 5.08571Z" fill="#0274F9"/>
<path d="M15.8066 2.1095H6.19405L2.45703 4.71913V11.326C2.45703 12.6976 3.15175 14.4404 4.36257 16.1074C5.83685 18.1372 8.01428 19.9836 10.66 21.4471L11.0003 21.6356L11.3407 21.4471C13.9864 19.9836 16.1638 18.1372 17.6381 16.1074C18.8489 14.4404 19.5436 12.6976 19.5436 11.326V4.71913L15.8066 2.1095ZM18.1373 11.326C18.1373 13.1968 16.229 17.0168 11.0003 20.0244C5.77169 17.0168 3.86334 13.1968 3.86334 11.326V5.45228L6.63657 3.5158H15.3641L18.1373 5.45228V11.326Z" fill="#EFF5FA"/>
<path d="M19.5433 4.71913V11.326C19.5433 12.6976 18.8486 14.4404 17.6378 16.1074C16.1635 18.1372 13.9861 19.9836 11.3403 21.4471L11 21.6356V20.0244C16.2286 17.0168 18.137 13.1968 18.137 11.326V5.45228L15.3638 3.5158H11V2.1095H15.8063L19.5433 4.71913Z" fill="#C6E1EC"/>
<path d="M15.4896 8.16786L11.0006 12.7815L10.9913 12.7913L9.84982 13.9642L6.51172 10.8422L7.47223 9.81511L9.80294 11.9954L10.9913 10.7747L11.0006 10.7648L14.4817 7.18719L15.4896 8.16786Z" fill="#EFF5FA"/>
<path d="M15.4889 8.16786L11 12.7815V10.7648L14.4811 7.18719L15.4889 8.16786Z" fill="#C6E1EC"/>
</svg>
