<svg width="24" height="24" viewBox="0 0 24 24" fill="none" xmlns="http://www.w3.org/2000/svg">
<path fill-rule="evenodd" clip-rule="evenodd" d="M11.6137 3.6396C11.8648 3.55803 12.1352 3.55803 12.3863 3.6396C12.4829 3.67101 12.6096 3.73847 12.8292 3.92491C13.0556 4.11703 13.3276 4.3883 13.7324 4.79307L16.4697 7.53033L17.0638 8.12444C17.6079 8.66854 17.7901 8.85756 17.9184 9.06702C18.0418 9.26833 18.1327 9.4878 18.1878 9.71739C18.2452 9.95626 18.25 10.2188 18.25 10.9882V16.2C18.25 17.0525 18.2494 17.6467 18.2116 18.1093C18.1745 18.5632 18.1054 18.824 18.0048 19.0215C17.789 19.4448 17.4448 19.789 17.0215 20.0048C16.824 20.1054 16.5632 20.1745 16.1093 20.2116C15.6467 20.2494 15.0525 20.25 14.2 20.25H9.8C8.94755 20.25 8.35331 20.2494 7.89068 20.2116C7.4368 20.1745 7.17604 20.1054 6.97852 20.0048C6.55516 19.789 6.21095 19.4448 5.99524 19.0215C5.8946 18.824 5.82546 18.5632 5.78838 18.1093C5.75058 17.6467 5.75 17.0525 5.75 16.2V10.9882C5.75 10.2188 5.75482 9.95626 5.81217 9.71739C5.86729 9.4878 5.9582 9.26833 6.08156 9.06702C6.20973 8.85786 6.39159 8.66908 6.93387 8.12679C6.93465 8.12601 6.93543 8.12522 6.93622 8.12444L7.53033 7.53033C7.53038 7.53028 7.53043 7.53023 7.53048 7.53018L10.2676 4.79307C10.6724 4.3883 10.9445 4.11703 11.1708 3.92491C11.3904 3.73847 11.5171 3.67101 11.6137 3.6396ZM6.46986 6.46948L9.20693 3.73241L9.22844 3.7109C9.60614 3.33318 9.9214 3.01791 10.2 2.7814C10.4906 2.53473 10.7902 2.32999 11.1502 2.21302C11.7025 2.03356 12.2975 2.03356 12.8498 2.21302C13.2098 2.32999 13.5094 2.53473 13.8 2.7814C14.0786 3.01791 14.3939 3.33317 14.7715 3.71088L14.7931 3.73241L17.5294 6.46872C17.5297 6.46903 17.53 6.46935 17.5303 6.46967L18.1244 7.06378L18.1849 7.12421C18.2237 7.16298 18.2615 7.20074 18.2983 7.23763L22.5303 11.4697C22.8232 11.7626 22.8232 12.2374 22.5303 12.5303C22.2374 12.8232 21.7626 12.8232 21.4697 12.5303L19.75 10.8107C19.75 10.8409 19.75 10.8716 19.75 10.9028L19.75 10.9882V16.2V16.2321C19.75 17.045 19.75 17.7006 19.7066 18.2315C19.662 18.7781 19.5676 19.2582 19.3413 19.7025C18.9818 20.4081 18.4081 20.9817 17.7025 21.3413C17.2582 21.5676 16.7781 21.662 16.2315 21.7066C15.7006 21.75 15.045 21.75 14.2321 21.75H14.2H9.8H9.76788C8.95505 21.75 8.29944 21.75 7.76853 21.7066C7.2219 21.662 6.74175 21.5676 6.29754 21.3413C5.59193 20.9817 5.01825 20.4081 4.65873 19.7025C4.43238 19.2582 4.33803 18.7781 4.29336 18.2315C4.24999 17.7006 4.24999 17.0449 4.25 16.2321L4.25 16.2V10.9882L4.24998 10.9028C4.24997 10.8716 4.24997 10.8409 4.24997 10.8107L2.53033 12.5303C2.23744 12.8232 1.76256 12.8232 1.46967 12.5303C1.17678 12.2374 1.17678 11.7626 1.46967 11.4697L5.70115 7.23818C5.73814 7.20112 5.77612 7.16317 5.81511 7.12421L5.81511 7.1242L5.87545 7.06389L5.87556 7.06378L6.46967 6.46967C6.46973 6.4696 6.46979 6.46954 6.46986 6.46948Z" fill="#B7202E"/>
<path fill-rule="evenodd" clip-rule="evenodd" d="M11.1502 2.21308C11.7025 2.03362 12.2975 2.03362 12.8498 2.21308C13.2098 2.33005 13.5094 2.53479 13.8 2.78146C14.0786 3.01797 14.3938 3.33323 14.7715 3.71094L14.7931 3.73247L17.5303 6.46973L22.5303 11.4697C22.8232 11.7626 22.8232 12.2375 22.5303 12.5304C22.2374 12.8233 21.7626 12.8233 21.4697 12.5304L16.4697 7.53039L13.7324 4.79313C13.3276 4.38836 13.0555 4.11709 12.8292 3.92497C12.6096 3.73853 12.4829 3.67107 12.3863 3.63966C12.1352 3.55809 11.8648 3.55809 11.6137 3.63966C11.5171 3.67107 11.3904 3.73853 11.1708 3.92497C10.9444 4.11709 10.6724 4.38836 10.2676 4.79313L7.53033 7.53039L2.53033 12.5304C2.23744 12.8233 1.76256 12.8233 1.46967 12.5304C1.17678 12.2375 1.17678 11.7626 1.46967 11.4697L6.46967 6.46973L9.20693 3.73247L9.22846 3.71094C9.60615 3.33323 9.9214 3.01797 10.2 2.78146C10.4906 2.53479 10.7902 2.33005 11.1502 2.21308Z" fill="#B7202E"/>
</svg>
