<svg width="20" height="20" viewBox="0 0 20 20" fill="none" xmlns="http://www.w3.org/2000/svg">
<path fill-rule="evenodd" clip-rule="evenodd" d="M3.33398 5.08336C2.91977 5.08336 2.58398 5.41915 2.58398 5.83336C2.58398 6.24757 2.91977 6.58336 3.33398 6.58336H16.6673C17.0815 6.58336 17.4173 6.24757 17.4173 5.83336C17.4173 5.41915 17.0815 5.08336 16.6673 5.08336H3.33398ZM3.33398 13.4167C2.91977 13.4167 2.58398 13.7525 2.58398 14.1667C2.58398 14.5809 2.91977 14.9167 3.33398 14.9167H16.6673C17.0815 14.9167 17.4173 14.5809 17.4173 14.1667C17.4173 13.7525 17.0815 13.4167 16.6673 13.4167H3.33398Z" fill="#333333"/>
<path fill-rule="evenodd" clip-rule="evenodd" d="M2.58398 10C2.58398 9.58582 2.91977 9.25003 3.33398 9.25003L16.6673 9.25003C17.0815 9.25003 17.4173 9.58582 17.4173 10C17.4173 10.4142 17.0815 10.75 16.6673 10.75L3.33398 10.75C2.91977 10.75 2.58398 10.4142 2.58398 10Z" fill="#333333"/>
</svg>
