<svg width="32" height="32" viewBox="0 0 32 32" fill="none" xmlns="http://www.w3.org/2000/svg">
<g clip-path="url(#clip0_657_37396)">
<path d="M27.6364 0H4.36364C1.95367 0 0 1.95367 0 4.36364V27.6364C0 30.0463 1.95367 32 4.36364 32H27.6364C30.0463 32 32 30.0463 32 27.6364V4.36364C32 1.95367 30.0463 0 27.6364 0Z" fill="#0084FF"/>
<path d="M26 15.26C26 20.3745 21.5218 24.52 16 24.52C15.0306 24.5206 14.0655 24.3904 13.1309 24.1327L9.72546 26V22.4691C7.45455 20.7727 6 18.1818 6 15.26C6 10.1455 10.4782 6 16 6C21.5218 6 26 10.1473 26 15.26Z" fill="white"/>
<path d="M22.4603 12.6675L16.9931 18.4675L14.4476 15.7529L9.47852 18.4693L14.9458 12.6675L17.5549 15.382L22.4603 12.6675Z" fill="#2196F3"/>
</g>
<defs>
<clipPath id="clip0_657_37396">
<rect width="32" height="32" fill="white"/>
</clipPath>
</defs>
</svg>
