<svg width="16" height="16" viewBox="0 0 16 16" fill="none" xmlns="http://www.w3.org/2000/svg">
<path fill-rule="evenodd" clip-rule="evenodd" d="M3.25 8C3.25 7.58579 3.58579 7.25 4 7.25H8H12C12.4142 7.25 12.75 7.58579 12.75 8C12.75 8.41421 12.4142 8.75 12 8.75H8H4C3.58579 8.75 3.25 8.41421 3.25 8Z" fill="#322F2E"/>
<path fill-rule="evenodd" clip-rule="evenodd" d="M5.91602 8C5.91602 7.58579 6.2518 7.25 6.66602 7.25H7.99935H9.33268C9.7469 7.25 10.0827 7.58579 10.0827 8C10.0827 8.41421 9.7469 8.75 9.33268 8.75H7.99935H6.66602C6.2518 8.75 5.91602 8.41421 5.91602 8Z" fill="#322F2E"/>
</svg>
