<svg width="20" height="20" viewBox="0 0 20 20" fill="none" xmlns="http://www.w3.org/2000/svg">
<path fill-rule="evenodd" clip-rule="evenodd" d="M4.73289 3.25077C4.71419 3.25011 4.69079 3.25 4.60643 3.25L4.57584 3.25013C4.5705 3.25022 4.56226 3.25044 4.54458 3.25122C4.25857 3.26385 3.9464 3.41639 3.7021 3.68569C3.45779 3.95499 3.33629 4.2805 3.35149 4.56638L3.35229 4.58351C3.35234 4.58476 3.3524 4.58624 3.35246 4.58791C3.51937 6.24676 3.88861 7.74737 4.44032 9.08091L5.4813 8.21062C6.08159 7.70876 6.2363 7.56637 6.3294 7.41056C6.42551 7.24973 6.48423 7.06936 6.50123 6.88277C6.5177 6.70202 6.47648 6.49584 6.28671 5.73676L5.92177 4.27699C5.90131 4.19514 5.89552 4.17247 5.89035 4.15449C5.74079 3.63449 5.27364 3.26975 4.73289 3.25077ZM5.11521 10.4718L6.44341 9.36142C6.47187 9.33763 6.49999 9.31416 6.52776 9.29098C7.00311 8.89425 7.37637 8.58272 7.61702 8.18001C7.82845 7.82618 7.95765 7.42936 7.99505 7.01887C8.03761 6.55166 7.91931 6.08011 7.76864 5.47956C7.75984 5.44448 7.75092 5.40895 7.74192 5.37296L7.37698 3.91319L7.37405 3.90147C7.35789 3.83678 7.34533 3.78654 7.33191 3.73988C7.00288 2.59587 5.97514 1.79344 4.78549 1.75169C4.73696 1.74999 4.68518 1.74999 4.61851 1.75L4.60643 1.75C4.56666 1.75 4.53769 1.75006 4.47841 1.75268C3.72523 1.78594 3.05531 2.16616 2.59113 2.67784C2.14404 3.17068 1.83685 3.84164 1.85061 4.5631C1.85014 4.56966 1.84983 4.57503 1.8497 4.57873C1.84955 4.58906 1.8496 4.60599 1.84973 4.61259L1.85026 4.62844L1.85109 4.64357L1.85193 4.65517L1.85257 4.66266L1.85283 4.66558L1.85332 4.67069L1.85381 4.67568C2.06973 6.8887 2.62291 8.88365 3.49711 10.6235C4.79636 13.2093 6.7913 15.2042 9.3771 16.5035C11.117 17.3777 13.1119 17.9309 15.3249 18.1468L15.3299 18.1473L15.335 18.1478L15.3379 18.148L15.3454 18.1487L15.357 18.1495L15.3722 18.1503L15.388 18.1509C15.3913 18.1509 15.3972 18.151 15.4036 18.151C15.4099 18.151 15.4167 18.151 15.4219 18.1509C15.4256 18.1508 15.4309 18.1505 15.4375 18.15C16.159 18.1638 16.8299 17.8566 17.3228 17.4095C17.8344 16.9453 18.2147 16.2754 18.2479 15.5222C18.2505 15.4629 18.2506 15.4339 18.2506 15.3942V15.3821C18.2506 15.3154 18.2506 15.2636 18.2489 15.2151C18.2072 14.0255 17.4047 12.9977 16.2607 12.6687C16.2141 12.6553 16.1639 12.6427 16.0992 12.6266L16.0874 12.6236L14.6276 12.2587C14.5917 12.2497 14.5561 12.2408 14.521 12.232C13.9205 12.0813 13.4489 11.963 12.9817 12.0056C12.5712 12.043 12.1744 12.1721 11.8206 12.3836C11.4179 12.6242 11.1064 12.9975 10.7096 13.4728C10.6864 13.5006 10.663 13.5287 10.6392 13.5572L9.52876 14.8854C7.65574 13.8302 6.17042 12.3449 5.11521 10.4718ZM10.9197 15.5603C12.2532 16.112 13.7538 16.4812 15.4127 16.6481C15.4144 16.6482 15.4158 16.6483 15.4171 16.6483L15.4342 16.6491C15.7201 16.6643 16.0456 16.5428 16.3149 16.2985C16.5842 16.0542 16.7368 15.742 16.7494 15.456C16.7502 15.4383 16.7504 15.4301 16.7505 15.4248L16.7506 15.3942C16.7506 15.3098 16.7505 15.2864 16.7498 15.2677C16.7309 14.727 16.3661 14.2598 15.8461 14.1103C15.8281 14.1051 15.8055 14.0993 15.7236 14.0788L14.2638 13.7139C13.5048 13.5241 13.2986 13.4829 13.1178 13.4994C12.9312 13.5164 12.7509 13.5751 12.59 13.6712C12.4342 13.7643 12.2918 13.919 11.79 14.5193L10.9197 15.5603ZM15.5773 18.1215C15.5828 18.12 15.5887 18.1184 15.5948 18.1165C15.6098 18.112 15.6284 18.106 15.6493 18.098C15.6699 18.0901 15.6962 18.079 15.7257 18.0637C15.7376 18.0574 15.7625 18.0433 15.7753 18.0355C15.7896 18.0265 15.8191 18.0062 15.8343 17.995C15.8511 17.9819 15.8855 17.9525 15.9029 17.9361C15.9219 17.917 15.9598 17.8744 15.9784 17.8508C15.998 17.8237 16.0351 17.7641 16.0523 17.7316C16.0691 17.6954 16.0975 17.6185 16.1087 17.5779C16.118 17.535 16.129 17.4479 16.1307 17.4039C16.1298 17.3606 16.1208 17.2764 16.113 17.2358C16.0898 17.1309 16.0479 17.0479 16.0088 16.9879C15.9973 16.971 15.9767 16.9432 15.9613 16.9237C16.1205 17.4576 15.7543 18.0105 15.5773 18.1215ZM15.8283 16.796C15.8228 16.7919 15.8174 16.7881 15.8125 16.7846C15.7889 16.768 15.7677 16.755 15.7507 16.7454C15.7335 16.7357 15.718 16.7278 15.7053 16.7217C15.6925 16.7155 15.6809 16.7105 15.6711 16.7063C15.6702 16.7059 15.6693 16.7056 15.6683 16.7052C15.7111 16.7263 15.7695 16.7582 15.8283 16.796ZM1.87909 4.42334C1.9901 4.24639 2.54284 3.88016 3.07682 4.03915C3.05721 4.02379 3.02938 4.00313 3.0125 3.99171C2.95249 3.95257 2.86937 3.9107 2.76445 3.88755C2.72387 3.87976 2.63968 3.87083 2.59633 3.86995C2.55232 3.87163 2.4652 3.88266 2.42239 3.89196C2.38178 3.90324 2.30487 3.93165 2.26873 3.94846C2.23628 3.96561 2.17673 4.00273 2.14959 4.02237C2.12603 4.041 2.08347 4.07886 2.06438 4.09786C2.04802 4.11527 2.01863 4.14961 2.00551 4.1664C1.99427 4.18159 1.97406 4.21111 1.96502 4.22537C1.95725 4.23822 1.9432 4.26306 1.93688 4.27499C1.92159 4.30451 1.91048 4.33078 1.90258 4.35139C1.89457 4.37229 1.88854 4.39083 1.88405 4.40589C1.88224 4.41198 1.88059 4.41781 1.87909 4.42334ZM3.20444 4.17211C3.24237 4.23097 3.27434 4.28945 3.29544 4.33229C3.29504 4.33135 3.29465 4.3304 3.29424 4.32944C3.29013 4.31965 3.28504 4.30809 3.27887 4.29524C3.27276 4.28251 3.26491 4.26708 3.25515 4.24988C3.24552 4.23289 3.2326 4.21165 3.216 4.18807C3.21246 4.18305 3.20861 4.17772 3.20444 4.17211Z" fill="#fff"/>
<path fill-rule="evenodd" clip-rule="evenodd" d="M4.73289 3.25074C4.71419 3.25008 4.69079 3.24997 4.60643 3.24997L4.57584 3.2501C4.5705 3.25019 4.56226 3.25041 4.54458 3.25119C4.25857 3.26382 3.9464 3.41636 3.7021 3.68566C3.45779 3.95496 3.33629 4.28047 3.35149 4.56635L3.35229 4.58348C3.35234 4.58473 3.3524 4.58621 3.35246 4.58788C3.51937 6.24673 3.88861 7.74734 4.44032 9.08088L5.4813 8.21059C6.08159 7.70873 6.2363 7.56634 6.3294 7.41053C6.42551 7.2497 6.48423 7.06933 6.50123 6.88274C6.5177 6.70199 6.47648 6.49581 6.28671 5.73673L5.92177 4.27696C5.90131 4.19511 5.89552 4.17244 5.89035 4.15446C5.74079 3.63446 5.27364 3.26971 4.73289 3.25074ZM5.11522 10.4718L6.44341 9.36139C6.47187 9.3376 6.49999 9.31413 6.52776 9.29095C7.00311 8.89422 7.37637 8.58269 7.61702 8.17998C7.82845 7.82615 7.95765 7.42932 7.99505 7.01884C8.03761 6.55163 7.91931 6.08008 7.76864 5.47953C7.75984 5.44445 7.75092 5.40892 7.74192 5.37293L7.37698 3.91316L7.37405 3.90144C7.35789 3.83675 7.34533 3.78651 7.33191 3.73985C7.00288 2.59584 5.97514 1.79341 4.78549 1.75166C4.73696 1.74996 4.68518 1.74996 4.61851 1.74997L4.60643 1.74997C4.56666 1.74997 4.53769 1.75003 4.47841 1.75265C3.72523 1.78591 3.05531 2.16613 2.59113 2.67781C2.14404 3.17065 1.83685 3.84161 1.85061 4.56307C1.85014 4.56963 1.84983 4.575 1.8497 4.5787C1.84955 4.58903 1.8496 4.60596 1.84973 4.61256L1.85026 4.62841L1.85109 4.64354L1.85193 4.65514L1.85257 4.66263L1.85283 4.66555L1.85332 4.67066L1.85381 4.67565C2.06973 6.88866 2.62291 8.88362 3.49711 10.6235C3.9212 11.4675 4.42022 12.2502 4.99145 12.9673C5.24954 13.2913 5.7214 13.3447 6.04538 13.0866C6.36936 12.8285 6.42277 12.3566 6.16468 12.0327C5.77855 11.5479 5.42822 11.0274 5.11522 10.4718ZM1.87909 4.4233C1.9901 4.24636 2.54284 3.88013 3.07682 4.03912C3.05721 4.02376 3.02938 4.0031 3.0125 3.99168C2.95249 3.95254 2.86937 3.91067 2.76445 3.88752C2.72387 3.87973 2.63968 3.8708 2.59633 3.86992C2.55232 3.8716 2.4652 3.88263 2.42239 3.89192C2.38178 3.90321 2.30487 3.93162 2.26873 3.94843C2.23628 3.96558 2.17673 4.0027 2.14959 4.02234C2.12603 4.04097 2.08347 4.07883 2.06438 4.09783C2.04802 4.11524 2.01863 4.14958 2.00551 4.16637C1.99427 4.18156 1.97406 4.21108 1.96502 4.22533C1.95725 4.23819 1.9432 4.26303 1.93688 4.27496C1.92159 4.30448 1.91048 4.33075 1.90258 4.35136C1.89457 4.37226 1.88854 4.3908 1.88405 4.40586C1.88224 4.41195 1.88059 4.41778 1.87909 4.4233ZM3.20444 4.17208C3.24237 4.23094 3.27434 4.28942 3.29544 4.33226C3.29504 4.33132 3.29465 4.33037 3.29424 4.32941C3.29013 4.31962 3.28504 4.30806 3.27887 4.29521C3.27276 4.28248 3.26491 4.26705 3.25515 4.24985C3.24552 4.23286 3.2326 4.21162 3.216 4.18804C3.21246 4.18302 3.20861 4.17769 3.20444 4.17208Z" fill="#fff"/>
</svg>
