<svg width="24" height="24" viewBox="0 0 24 24" fill="none" xmlns="http://www.w3.org/2000/svg">
<path fill-rule="evenodd" clip-rule="evenodd" d="M5.46349 2.25002C5.48502 2.25003 5.50681 2.25005 5.52886 2.25005C5.5492 2.25005 5.56926 2.25004 5.58906 2.25003C5.9212 2.24988 6.17954 2.24977 6.41823 2.29189C7.31765 2.45061 8.07958 3.04551 8.45171 3.87958C8.55046 4.10093 8.61301 4.35158 8.69342 4.67384C8.69822 4.69305 8.70307 4.71252 8.708 4.73225L9.24319 6.873C9.25219 6.909 9.26111 6.94452 9.26991 6.97961C9.42058 7.58015 9.53888 8.05171 9.49632 8.51891C9.45892 8.9294 9.32972 9.32623 9.11829 9.68005C8.87764 10.0828 8.50439 10.3943 8.02904 10.791C8.00127 10.8142 7.97315 10.8377 7.94468 10.8615L5.94789 12.5308C7.2512 14.8902 9.11168 16.7507 11.4711 18.054L13.1405 16.0572C13.1642 16.0288 13.1877 16.0007 13.2109 15.9729C13.6076 15.4975 13.9192 15.1243 14.3219 14.8836C14.6757 14.6722 15.0725 14.543 15.483 14.5056C15.9502 14.463 16.4218 14.5813 17.0223 14.732C17.0574 14.7408 17.0929 14.7497 17.1289 14.7587L19.2697 15.2939C19.2894 15.2988 19.3089 15.3037 19.3281 15.3085C19.6503 15.3889 19.901 15.4515 20.1223 15.5502C20.9564 15.9223 21.5513 16.6843 21.71 17.5837C21.7521 17.8224 21.752 18.0807 21.7519 18.4129C21.7519 18.4327 21.7519 18.4527 21.7519 18.4731C21.7519 18.4951 21.7519 18.5169 21.7519 18.5384C21.7521 18.9214 21.7523 19.2237 21.6857 19.5215C21.4436 20.6055 20.4403 21.5157 19.3379 21.6514C19.0355 21.6886 18.7756 21.6632 18.4524 21.6315C18.437 21.63 18.4214 21.6284 18.4056 21.6269C15.766 21.3694 13.3903 20.7099 11.321 19.6702C8.24687 18.1256 5.87633 15.755 4.33171 12.6809C3.292 10.6116 2.63256 8.23596 2.37501 5.5963C2.37348 5.58055 2.37195 5.56496 2.37043 5.54952C2.33875 5.22628 2.31327 4.96642 2.3505 4.66401C2.48623 3.56164 3.39643 2.55831 4.4804 2.31618C4.77825 2.24965 5.08048 2.24982 5.46349 2.25002ZM12.8595 18.7319C14.54 19.452 16.4417 19.9282 18.5513 20.134C18.9378 20.1717 19.0335 20.1776 19.1546 20.1627C19.6274 20.1044 20.118 19.6594 20.2218 19.1945C20.2477 19.0784 20.2519 18.9515 20.2519 18.4731C20.2519 18.0524 20.2491 17.9363 20.2329 17.8444C20.1607 17.4355 19.8903 17.0892 19.5112 16.9201C19.4259 16.882 19.3139 16.8511 18.9059 16.7491L16.7651 16.2139C16.006 16.0242 15.7999 15.9829 15.6191 15.9994C15.4325 16.0164 15.2521 16.0751 15.0913 16.1712C14.9355 16.2644 14.7931 16.4191 14.2913 17.0193L12.8595 18.7319ZM5.27005 11.1424L6.98257 9.71066C7.58286 9.20881 7.73757 9.06641 7.83067 8.91061C7.92678 8.74978 7.9855 8.5694 8.0025 8.38282C8.01897 8.20206 7.97775 7.99588 7.78798 7.23681L7.25279 5.09605C7.15077 4.68797 7.11992 4.57604 7.08186 4.49074C6.91271 4.11162 6.56638 3.84121 6.15755 3.76907C6.06557 3.75283 5.9495 3.75005 5.52886 3.75005C5.05043 3.75005 4.92349 3.75418 4.8074 3.78011C4.34251 3.88395 3.89747 4.37452 3.83926 4.8473C3.82435 4.96843 3.83022 5.06417 3.86792 5.45064C4.07374 7.56018 4.5499 9.46194 5.27005 11.1424Z" fill="#322F2E"/>
<path fill-rule="evenodd" clip-rule="evenodd" d="M5.46349 2.2499C5.48502 2.24991 5.50681 2.24992 5.52886 2.24992C5.5492 2.24992 5.56926 2.24991 5.58906 2.24991C5.9212 2.24976 6.17954 2.24965 6.41823 2.29177C7.31765 2.45049 8.07958 3.04539 8.45171 3.87946C8.55046 4.10081 8.61301 4.35146 8.69342 4.67372C8.69822 4.69293 8.70307 4.71239 8.708 4.73213L9.24319 6.87288C9.25219 6.90887 9.26111 6.9444 9.26991 6.97948C9.42058 7.58003 9.53888 8.05159 9.49632 8.51879C9.45892 8.92928 9.32972 9.32611 9.11829 9.67993C8.87764 10.0826 8.50439 10.3942 8.02904 10.7909C8.00127 10.8141 7.97315 10.8376 7.94468 10.8613L5.9479 12.5307C6.34259 13.2452 6.7878 13.9129 7.28144 14.5326C7.53953 14.8566 7.48612 15.3285 7.16214 15.5865C6.83816 15.8446 6.3663 15.7912 6.10821 15.4672C5.42939 14.6151 4.83611 13.6846 4.33171 12.6808C3.292 10.6115 2.63256 8.23584 2.37501 5.59617C2.37348 5.58043 2.37195 5.56484 2.37043 5.54939C2.33875 5.22615 2.31327 4.96629 2.3505 4.66388C2.48623 3.56152 3.39643 2.55819 4.4804 2.31606C4.77825 2.24953 5.08048 2.24969 5.46349 2.2499ZM5.27005 11.1423L6.98257 9.71054C7.58286 9.20868 7.73757 9.06629 7.83067 8.91049C7.92678 8.74966 7.9855 8.56928 8.0025 8.3827C8.01897 8.20194 7.97775 7.99576 7.78798 7.23669L7.25279 5.09593C7.15077 4.68785 7.11992 4.57592 7.08186 4.49062C6.91271 4.1115 6.56638 3.84109 6.15755 3.76894C6.06557 3.75271 5.9495 3.74992 5.52886 3.74992C5.05043 3.74992 4.92349 3.75405 4.8074 3.77999C4.34251 3.88383 3.89747 4.3744 3.83926 4.84718C3.82435 4.96831 3.83022 5.06404 3.86792 5.45052C4.07374 7.56005 4.5499 9.46182 5.27005 11.1423Z" fill="#322F2E"/>
</svg>
