<svg width="24" height="24" viewBox="0 0 24 24" fill="none" xmlns="http://www.w3.org/2000/svg">
<path fill-rule="evenodd" clip-rule="evenodd" d="M4.75 10.1482C4.75 7.63087 5.66985 5.80032 7.00337 4.59302C8.34965 3.37416 10.1636 2.75 12 2.75C13.8364 2.75 15.6504 3.37418 16.9966 4.59304C18.3301 5.80035 19.25 7.63089 19.25 10.1482C19.25 13.8042 16.7985 16.9417 14.5854 19.0124C13.9084 19.6459 13.6679 19.8659 12.9633 20.0845C12.7885 20.1388 12.4265 20.1825 12.0002 20.1825C11.5739 20.1825 11.2119 20.1388 11.0371 20.0846C10.3325 19.8659 10.092 19.6459 9.41501 19.0125C7.20171 16.9417 4.75 13.8043 4.75 10.1482ZM20.75 10.1482C20.75 7.23337 19.6699 4.98983 18.0034 3.48107C16.3496 1.98387 14.1636 1.25001 12 1.25C9.83643 1.24999 7.65035 1.98385 5.99663 3.48105C4.33015 4.98981 3.25 7.23335 3.25 10.1482C3.25 14.4536 6.10292 17.9679 8.3902 20.1079L8.40601 20.1226C9.1003 20.7723 9.55106 21.194 10.5926 21.5172C10.9835 21.6385 11.524 21.6825 12.0002 21.6825C12.4764 21.6825 13.017 21.6384 13.4079 21.5171C14.4494 21.1939 14.9001 20.7722 15.5944 20.1225L15.6102 20.1077C17.8973 17.9677 20.75 14.4535 20.75 10.1482ZM9.75 10C9.75 8.75739 10.7574 7.75003 12 7.75003C13.2426 7.75003 14.25 8.75739 14.25 10C14.25 11.2427 13.2426 12.25 12 12.25C10.7574 12.25 9.75 11.2427 9.75 10ZM12 6.25003C9.92893 6.25003 8.25 7.92896 8.25 10C8.25 12.0711 9.92893 13.75 12 13.75C14.0711 13.75 15.75 12.0711 15.75 10C15.75 7.92896 14.0711 6.25003 12 6.25003Z" fill="#322F2E"/>
</svg>
