<svg width="16" height="16" viewBox="0 0 16 16" fill="none" xmlns="http://www.w3.org/2000/svg">
<path fill-rule="evenodd" clip-rule="evenodd" d="M3.41602 6.76562C3.41602 5.15366 4.00254 4.00213 4.83605 3.24751C5.68233 2.48133 6.82958 2.08349 7.99935 2.0835C9.16911 2.0835 10.3164 2.48134 11.1626 3.24752C11.9962 4.00215 12.5827 5.15368 12.5827 6.76562C12.5827 8.6192 11.591 10.2882 10.4248 11.5997C10.188 11.8659 10.069 11.9955 9.90971 12.1109C9.7553 12.2228 9.52902 12.3438 9.07585 12.5029C8.92534 12.5557 8.51322 12.6077 7.99948 12.6077C7.48574 12.6077 7.07361 12.5558 6.9231 12.5029C6.46992 12.3439 6.24364 12.2229 6.08922 12.111C5.9299 11.9955 5.81087 11.866 5.57414 11.5998C4.40777 10.2883 3.41602 8.61923 3.41602 6.76562ZM14.0827 6.76562C14.0827 4.75615 13.3359 3.19163 12.1694 2.13555C11.0157 1.09102 9.49625 0.5835 7.99935 0.583496C6.50245 0.583492 4.98304 1.09101 3.82932 2.13553C2.66283 3.19161 1.91602 4.75614 1.91602 6.76562C1.91602 9.15266 3.18174 11.1669 4.45328 12.5966L4.47439 12.6204C4.68727 12.8599 4.90612 13.1061 5.20906 13.3256C5.52694 13.556 5.90299 13.7346 6.42633 13.9183C6.83471 14.0616 7.46791 14.1077 7.9995 14.1077C8.53109 14.1077 9.16429 14.0616 9.57267 13.9182C10.096 13.7345 10.472 13.5559 10.7899 13.3255C11.0928 13.106 11.3117 12.8598 11.5245 12.6202L11.5457 12.5965C12.8171 11.1668 14.0827 9.15259 14.0827 6.76562ZM6.74935 6.66685C6.74935 5.97649 7.30899 5.41685 7.99935 5.41685C8.6897 5.41685 9.24935 5.97649 9.24935 6.66685C9.24935 7.35721 8.6897 7.91685 7.99935 7.91685C7.30899 7.91685 6.74935 7.35721 6.74935 6.66685ZM7.99935 3.91685C6.48057 3.91685 5.24935 5.14807 5.24935 6.66685C5.24935 8.18563 6.48057 9.41685 7.99935 9.41685C9.51813 9.41685 10.7493 8.18563 10.7493 6.66685C10.7493 5.14807 9.51813 3.91685 7.99935 3.91685Z" fill="white"/>
</svg>
