<svg width="108" height="108" viewBox="0 0 108 108" fill="none" xmlns="http://www.w3.org/2000/svg">
<rect x="3" y="3" width="102" height="102" rx="51" fill="white"/>
<path d="M49.1924 62.9081C49.1924 60.7837 49.5779 58.9972 50.3489 57.5487C51.1681 56.052 52.1318 54.8449 53.2401 53.9276C54.3484 53.0102 55.7699 52.0204 57.5047 50.9582C59.4803 49.7512 60.9259 48.6889 61.8415 47.7716C62.7571 46.8059 63.2148 45.623 63.2148 44.2228L63.2148 41.6156C63.2148 40.1188 62.6848 38.9359 61.6247 38.0669C60.5645 37.1495 59.143 36.6908 57.3601 36.6908L51.144 36.6908C49.2165 36.6908 47.6745 37.3426 46.518 38.6462C45.3615 39.9016 44.7833 41.5915 44.7833 43.7159L34.8086 43.7159C34.8086 40.6258 35.4832 37.8979 36.8324 35.532C38.1817 33.1179 40.0851 31.259 42.5426 29.9554C45.0483 28.6518 47.9155 28 51.144 28L57.3601 28C60.4923 28 63.2389 28.5794 65.6001 29.7382C68.0094 30.8487 69.8646 32.442 71.1657 34.5181C72.5149 36.546 73.1895 38.9118 73.1895 41.6156L73.1895 44.2228C73.1895 46.3955 72.804 48.2061 72.0331 49.6546C71.3102 51.1031 70.4188 52.2377 69.3587 53.0585C68.3467 53.8793 66.9734 54.8208 65.2387 55.883C63.2148 57.0418 61.6969 58.1523 60.685 59.2145C59.6731 60.2284 59.1671 61.6527 59.1671 63.4875L59.1671 64.5014L49.1924 64.5014L49.1924 62.9081ZM54.1798 80C52.3969 80 50.9512 79.4689 49.8429 78.4067C48.7828 77.2962 48.2528 75.8477 48.2528 74.0613C48.2528 72.2748 48.7828 70.8505 49.8429 69.7883C50.9512 68.6778 52.3969 68.1226 54.1798 68.1226C55.9627 68.1226 57.3842 68.6778 58.4443 69.7883C59.5526 70.8505 60.1068 72.2748 60.1068 74.0613C60.1068 75.8477 59.5526 77.2962 58.4443 78.4067C57.3842 79.4689 55.9627 80 54.1798 80Z" fill="#B7202E"/>
<rect x="3" y="3" width="102" height="102" rx="51" stroke="#B7202E" stroke-width="6"/>
</svg>
