<svg width="24" height="25" viewBox="0 0 24 25" fill="none" xmlns="http://www.w3.org/2000/svg">
<path fill-rule="evenodd" clip-rule="evenodd" d="M16.4697 16.9697C16.7626 16.6768 17.2374 16.6768 17.5303 16.9697L20.5303 19.9697C20.8232 20.2626 20.8232 20.7374 20.5303 21.0303C20.2374 21.3232 19.7626 21.3232 19.4697 21.0303L16.4697 18.0303C16.1768 17.7374 16.1768 17.2626 16.4697 16.9697Z" fill="#42378F"/>
<path fill-rule="evenodd" clip-rule="evenodd" d="M11 4.25C6.99594 4.25 3.75 7.49594 3.75 11.5C3.75 15.5041 6.99594 18.75 11 18.75C15.0041 18.75 18.25 15.5041 18.25 11.5C18.25 7.49594 15.0041 4.25 11 4.25ZM2.25 11.5C2.25 6.66751 6.16751 2.75 11 2.75C15.8325 2.75 19.75 6.66751 19.75 11.5C19.75 16.3325 15.8325 20.25 11 20.25C6.16751 20.25 2.25 16.3325 2.25 11.5Z" fill="#333333"/>
</svg>
