<svg width="16" height="15" viewBox="0 0 16 15" fill="none" xmlns="http://www.w3.org/2000/svg">
<path d="M8.281 0.751483C8.18381 0.491579 7.81619 0.491579 7.719 0.751483L6.09458 5.09573C6.05242 5.20848 5.94694 5.28512 5.82668 5.29037L1.19308 5.49284C0.915869 5.50495 0.802266 5.85459 1.01942 6.02733L4.64907 8.91469C4.74327 8.98963 4.78356 9.11363 4.7514 9.22963L3.5121 13.699C3.43795 13.9664 3.73537 14.1825 3.96676 14.0293L7.83443 11.4696C7.93481 11.4031 8.06519 11.4031 8.16557 11.4696L12.0332 14.0293C12.2646 14.1825 12.562 13.9664 12.4879 13.699L11.2486 9.22963C11.2164 9.11363 11.2567 8.98963 11.3509 8.91469L14.9806 6.02733C15.1977 5.85459 15.0841 5.50495 14.8069 5.49284L10.1733 5.29037C10.0531 5.28512 9.94758 5.20848 9.90542 5.09573L8.281 0.751483Z" fill="#BCC8D3"/>
</svg>
