<svg width="17" height="15" viewBox="0 0 17 15" fill="none" xmlns="http://www.w3.org/2000/svg">
<path d="M7.89007 0.679769C8.20356 -0.210861 9.46311 -0.210858 9.7766 0.679772L11.0304 4.24186C11.1713 4.64208 11.5494 4.90983 11.9737 4.90983H15.85C16.838 4.90983 17.2275 6.19005 16.407 6.74035L13.4123 8.74873C13.0335 9.00279 12.8746 9.48102 13.0261 9.91128L14.2017 13.2513C14.5211 14.1587 13.5004 14.9497 12.7015 14.4138L9.39033 12.1932C9.05338 11.9672 8.61329 11.9672 8.27634 12.1932L4.96519 14.4138C4.16625 14.9497 3.14553 14.1587 3.46493 13.2513L4.64061 9.91127C4.79206 9.48101 4.63316 9.00279 4.25433 8.74873L1.25967 6.74035C0.439135 6.19005 0.828678 4.90983 1.81666 4.90983H5.69295C6.11724 4.90983 6.49535 4.64208 6.63622 4.24186L7.89007 0.679769Z" fill="#D8D8D8"/>
</svg>
