<svg width="24" height="25" viewBox="0 0 24 25" fill="none" xmlns="http://www.w3.org/2000/svg">
<path fill-rule="evenodd" clip-rule="evenodd" d="M10.621 2.74989C10.657 2.74995 10.6932 2.75 10.7298 2.75H13.2702C13.3068 2.75 13.343 2.74995 13.379 2.74989C13.8916 2.74913 14.3415 2.74845 14.7424 2.90612C15.0929 3.04399 15.4032 3.26765 15.6449 3.5566C15.9212 3.88706 16.0629 4.31409 16.2242 4.80063C16.2356 4.83476 16.247 4.86918 16.2585 4.90388L16.7115 6.26283C16.7878 6.49154 16.7494 6.74296 16.6084 6.93853C16.4675 7.13411 16.2411 7.25 16 7.25H8.00001C7.75892 7.25 7.53254 7.13411 7.39157 6.93853C7.25061 6.74296 7.21226 6.49154 7.28849 6.26283L7.74148 4.90388C7.75304 4.86918 7.76446 4.83476 7.77578 4.80063C7.93715 4.31409 8.07879 3.88706 8.35514 3.5566C8.59678 3.26765 8.90709 3.04399 9.25763 2.90612C9.65852 2.74845 10.1084 2.74913 10.621 2.74989ZM10.7298 4.25C10.0438 4.25 9.90691 4.2626 9.80664 4.30204C9.68979 4.348 9.58635 4.42255 9.50581 4.51887C9.43669 4.60152 9.38144 4.7274 9.1645 5.37822L9.04058 5.75H14.9594L14.8355 5.37822C14.6186 4.7274 14.5633 4.60152 14.4942 4.51887C14.4137 4.42255 14.3102 4.348 14.1934 4.30204C14.0931 4.2626 13.9562 4.25 13.2702 4.25H10.7298Z" fill="#BCC8D3"/>
<path fill-rule="evenodd" clip-rule="evenodd" d="M2.25 6.5C2.25 6.08579 2.58579 5.75 3 5.75H5H8H16H19H21C21.4142 5.75 21.75 6.08579 21.75 6.5C21.75 6.91421 21.4142 7.25 21 7.25H19.7017L19.0471 17.0692L19.045 17.1C18.9941 17.863 18.953 18.4796 18.8798 18.9786C18.8042 19.4932 18.6871 19.9431 18.4517 20.3563C18.0766 21.0147 17.5107 21.5441 16.8287 21.8746C16.4008 22.082 15.9442 22.1689 15.4256 22.2101C14.9229 22.25 14.3049 22.25 13.5402 22.25H13.5093H10.4907H10.4598C9.6951 22.25 9.07707 22.25 8.57438 22.2101C8.0558 22.1689 7.59919 22.082 7.17126 21.8746C6.48928 21.5441 5.92345 21.0147 5.54831 20.3563C5.31292 19.9431 5.19579 19.4932 5.12022 18.9786C5.04696 18.4796 5.00586 17.863 4.955 17.1L4.95295 17.0692L4.29834 7.25H3C2.58579 7.25 2.25 6.91421 2.25 6.5ZM5.80166 7.25L6.44963 16.9694C6.50303 17.7704 6.54072 18.3276 6.60431 18.7607C6.66657 19.1847 6.74617 19.4286 6.85165 19.6138C7.07673 20.0088 7.41623 20.3265 7.82542 20.5248C8.01718 20.6177 8.26585 20.6809 8.69307 20.7148C9.12943 20.7495 9.68783 20.75 10.4907 20.75H13.5093C14.3122 20.75 14.8706 20.7495 15.3069 20.7148C15.7342 20.6809 15.9828 20.6177 16.1746 20.5248C16.5838 20.3265 16.9233 20.0088 17.1483 19.6138C17.2538 19.4286 17.3334 19.1847 17.3957 18.7607C17.4593 18.3276 17.497 17.7704 17.5504 16.9694L18.1983 7.25H16H8H5.80166Z" fill="#BCC8D3"/>
</svg>
