<svg width="21" height="21" viewBox="0 0 21 21" fill="none" xmlns="http://www.w3.org/2000/svg">
<path fill-rule="evenodd" clip-rule="evenodd" d="M0.32698 1.63803C0 2.27976 0 3.11984 0 4.8V9.2C0 10.8802 0 11.7202 0.32698 12.362C0.614601 12.9265 1.07354 13.3854 1.63803 13.673C2.27976 14 3.11984 14 4.8 14H5.26858C5.25642 14.0536 5.25 14.1094 5.25 14.1667V15.2V15.2321C5.24999 16.0449 5.24999 16.7006 5.29336 17.2315C5.33803 17.7781 5.43238 18.2582 5.65873 18.7025C6.01825 19.4081 6.59193 19.9817 7.29754 20.3413C7.74175 20.5676 8.2219 20.662 8.76853 20.7066C9.29945 20.75 9.95507 20.75 10.7679 20.75H10.8H15.2H15.2321C16.0449 20.75 16.7006 20.75 17.2315 20.7066C17.7781 20.662 18.2582 20.5676 18.7025 20.3413C19.4081 19.9817 19.9817 19.4081 20.3413 18.7025C20.5676 18.2582 20.662 17.7781 20.7066 17.2315C20.75 16.7006 20.75 16.0449 20.75 15.2321V15.2V10.8V10.7679C20.75 9.95507 20.75 9.29945 20.7066 8.76853C20.662 8.2219 20.5676 7.74175 20.3413 7.29754C19.9817 6.59193 19.4081 6.01825 18.7025 5.65873C18.2582 5.43238 17.7781 5.33803 17.2315 5.29336C16.7006 5.24999 16.0449 5.24999 15.2321 5.25H15.2H14.1667C14.1094 5.25 14.0536 5.25642 14 5.26858V4.8C14 3.11984 14 2.27976 13.673 1.63803C13.3854 1.07354 12.9265 0.614601 12.362 0.32698C11.7202 0 10.8802 0 9.2 0H4.8C3.11984 0 2.27976 0 1.63803 0.32698C1.07354 0.614601 0.614601 1.07354 0.32698 1.63803ZM14 6.73142V9.2C14 10.8802 14 11.7202 13.673 12.362C13.3854 12.9265 12.9265 13.3854 12.362 13.673C11.7202 14 10.8802 14 9.2 14H6.73142C6.74358 14.0536 6.75 14.1094 6.75 14.1667V15.2C6.75 16.0525 6.75058 16.6467 6.78838 17.1093C6.82546 17.5632 6.8946 17.824 6.99524 18.0215C7.21095 18.4448 7.55516 18.789 7.97852 19.0048C8.17604 19.1054 8.4368 19.1745 8.89068 19.2116C9.35331 19.2494 9.94755 19.25 10.8 19.25H15.2C16.0525 19.25 16.6467 19.2494 17.1093 19.2116C17.5632 19.1745 17.824 19.1054 18.0215 19.0048C18.4448 18.789 18.789 18.4448 19.0048 18.0215C19.1054 17.824 19.1745 17.5632 19.2116 17.1093C19.2494 16.6467 19.25 16.0525 19.25 15.2V10.8C19.25 9.94755 19.2494 9.35331 19.2116 8.89068C19.1745 8.4368 19.1054 8.17604 19.0048 7.97852C18.789 7.55516 18.4448 7.21095 18.0215 6.99524C17.824 6.8946 17.5632 6.82546 17.1093 6.78838C16.6467 6.75058 16.0525 6.75 15.2 6.75H14.1667C14.1094 6.75 14.0536 6.74358 14 6.73142Z" fill="#808A96"/>
</svg>
