<svg width="24" height="24" viewBox="0 0 24 24" fill="none" xmlns="http://www.w3.org/2000/svg">
<path fill-rule="evenodd" clip-rule="evenodd" d="M9 15.75C7.20507 15.75 5.75 17.2051 5.75 19C5.75 19.6904 6.30964 20.25 7 20.25H17C17.6904 20.25 18.25 19.6904 18.25 19C18.25 17.2051 16.7949 15.75 15 15.75H9ZM19.75 19C19.75 20.5188 18.5188 21.75 17 21.75H7C5.48122 21.75 4.25 20.5188 4.25 19C4.25 16.3767 6.37665 14.25 9 14.25H15C17.6234 14.25 19.75 16.3767 19.75 19Z" fill="#322F2E"/>
<path fill-rule="evenodd" clip-rule="evenodd" d="M8.75 7.00003C8.75 5.20511 10.2051 3.75003 12 3.75003C13.7949 3.75003 15.25 5.20511 15.25 7.00003C15.25 8.79496 13.7949 10.25 12 10.25C10.2051 10.25 8.75 8.79496 8.75 7.00003ZM12 2.25003C9.37665 2.25003 7.25 4.37668 7.25 7.00003C7.25 9.62338 9.37665 11.75 12 11.75C14.6234 11.75 16.75 9.62338 16.75 7.00003C16.75 4.37668 14.6234 2.25003 12 2.25003Z" fill="#322F2E"/>
</svg>
