<svg width="32" height="32" viewBox="0 0 32 32" fill="none" xmlns="http://www.w3.org/2000/svg">
<g clip-path="url(#clip0_657_37402)">
<path d="M29.0309 0H2.96909C1.32931 0 0 1.32931 0 2.96909V29.0309C0 30.6707 1.32931 32 2.96909 32H29.0309C30.6707 32 32 30.6707 32 29.0309V2.96909C32 1.32931 30.6707 0 29.0309 0Z" fill="#EB0000"/>
<path d="M25.5332 11.1892C25.1332 9.95833 23.8095 9.21288 22.5914 9.04197C18.2097 8.57651 13.7912 8.57651 9.40954 9.04197C8.19136 9.21288 6.86408 9.95106 6.46772 11.1892C5.84409 14.3668 5.84409 17.6353 6.46772 20.8129C6.86772 22.042 8.19136 22.7892 9.40954 22.9601C13.7912 23.4256 18.2097 23.4256 22.5914 22.9601C23.8095 22.7892 25.1368 22.0511 25.5332 20.8129C26.1568 17.6353 26.1568 14.3668 25.5332 11.1892ZM13.6077 19.8329V12.1674L19.8477 16.0001C17.7441 17.2929 15.7023 18.5456 13.6077 19.8329Z" fill="white"/>
</g>
<defs>
<clipPath id="clip0_657_37402">
<rect width="32" height="32" fill="white"/>
</clipPath>
</defs>
</svg>
